<svg width="304" height="304" viewBox="0 0 304 304" fill="none" xmlns="http://www.w3.org/2000/svg">
<rect x="1" y="1" width="302" height="302" rx="11" stroke="#7E7E7E" stroke-width="2" stroke-linejoin="round" stroke-dasharray="10 10"/>
<path d="M99.504 189.024H101.136V192.912C101.136 194.112 100.984 195.288 100.68 196.44C100.392 197.592 99.976 198.672 99.432 199.68C98.888 200.688 98.248 201.584 97.512 202.368C96.776 203.152 95.976 203.776 95.112 204.24L93.888 202.632C94.688 202.232 95.424 201.696 96.096 201.024C96.784 200.336 97.384 199.552 97.896 198.672C98.408 197.792 98.8 196.864 99.072 195.888C99.36 194.896 99.504 193.904 99.504 192.912V189.024ZM99.864 189.024H101.472V192.912C101.472 193.872 101.608 194.824 101.88 195.768C102.168 196.712 102.568 197.6 103.08 198.432C103.592 199.264 104.176 200.008 104.832 200.664C105.504 201.32 106.224 201.84 106.992 202.224L105.768 203.808C104.92 203.376 104.136 202.784 103.416 202.032C102.712 201.28 102.088 200.424 101.544 199.464C101.016 198.488 100.6 197.448 100.296 196.344C100.008 195.224 99.864 194.08 99.864 192.912V189.024ZM108.888 187.152H110.88V208.872H108.888V187.152ZM110.424 195.936H114.432V197.64H110.424V195.936ZM122.062 189.528H123.718V191.76C123.718 193.088 123.462 194.32 122.95 195.456C122.438 196.592 121.718 197.592 120.79 198.456C119.878 199.304 118.814 199.944 117.598 200.376L116.566 198.816C117.654 198.416 118.606 197.864 119.422 197.16C120.254 196.456 120.902 195.64 121.366 194.712C121.83 193.768 122.062 192.784 122.062 191.76V189.528ZM122.446 189.528H124.078V191.76C124.078 192.496 124.206 193.208 124.462 193.896C124.734 194.568 125.118 195.2 125.614 195.792C126.11 196.368 126.686 196.88 127.342 197.328C128.014 197.776 128.75 198.128 129.55 198.384L128.542 199.944C127.342 199.528 126.286 198.92 125.374 198.12C124.462 197.32 123.742 196.376 123.214 195.288C122.702 194.2 122.446 193.024 122.446 191.76V189.528ZM117.094 188.952H128.974V190.584H117.094V188.952ZM132.07 187.176H134.062V203.064H132.07V187.176ZM120.118 206.76H134.734V208.392H120.118V206.76ZM120.118 201.576H122.11V207.48H120.118V201.576ZM156.002 192.336H161.834V193.968H156.002V192.336ZM151.034 188.16C152.106 188.16 153.058 188.376 153.89 188.808C154.738 189.224 155.402 189.808 155.882 190.56C156.362 191.312 156.602 192.184 156.602 193.176C156.602 194.168 156.362 195.048 155.882 195.816C155.402 196.568 154.738 197.16 153.89 197.592C153.058 198.008 152.106 198.216 151.034 198.216C149.946 198.216 148.978 198.008 148.13 197.592C147.298 197.16 146.642 196.568 146.162 195.816C145.682 195.048 145.442 194.168 145.442 193.176C145.442 192.184 145.682 191.312 146.162 190.56C146.642 189.808 147.298 189.224 148.13 188.808C148.978 188.376 149.946 188.16 151.034 188.16ZM151.034 189.84C150.314 189.84 149.674 189.984 149.114 190.272C148.57 190.544 148.138 190.936 147.818 191.448C147.498 191.944 147.338 192.52 147.338 193.176C147.338 193.832 147.498 194.416 147.818 194.928C148.138 195.424 148.57 195.816 149.114 196.104C149.674 196.392 150.314 196.536 151.034 196.536C151.738 196.536 152.362 196.392 152.906 196.104C153.466 195.816 153.906 195.424 154.226 194.928C154.546 194.416 154.706 193.832 154.706 193.176C154.706 192.52 154.546 191.944 154.226 191.448C153.906 190.936 153.466 190.544 152.906 190.272C152.362 189.984 151.738 189.84 151.034 189.84ZM160.97 187.152H162.962V198.816H160.97V187.152ZM149.066 199.896H151.034V202.608H160.97V199.896H162.962V208.584H149.066V199.896ZM151.034 204.192V206.952H160.97V204.192H151.034ZM167.184 204.528H186.864V206.184H167.184V204.528ZM175.992 199.896H177.96V205.224H175.992V199.896ZM169.584 188.76H184.416V195.336H171.6V199.68H169.632V193.752H182.448V190.392H169.584V188.76ZM169.632 198.84H184.92V200.472H169.632V198.84ZM191.759 197.568H206.663V199.2H191.759V197.568ZM189.263 204.264H208.943V205.92H189.263V204.264ZM191.759 189.168H206.447V190.8H193.727V198.288H191.759V189.168Z" fill="#7E7E7E"/>
<path d="M182.625 141.625V155.125C182.625 156.915 181.896 158.632 180.599 159.898C179.302 161.164 177.543 161.875 175.708 161.875H127.292C125.457 161.875 123.698 161.164 122.401 159.898C121.104 158.632 120.375 156.915 120.375 155.125V141.625" stroke="#7E7E7E" stroke-width="2" stroke-linecap="round" stroke-linejoin="round"/>
<path d="M168.792 118L151.5 101.125L134.208 118" stroke="#7E7E7E" stroke-width="2" stroke-linecap="round" stroke-linejoin="round"/>
<path d="M151.5 101.125V141.625" stroke="#7E7E7E" stroke-width="2" stroke-linecap="round" stroke-linejoin="round"/>
</svg>
